{"title":"The Soup 2015 10.30 HDTV.x264","uid":12659414,"size":140542899,"categoryP":"video","categoryS":"tv_shows","magnet":"?xt=urn:btih:c4a3b51731fdb8a435eda2d790308ca0fb170f30&amp;dn=The+Soup+2015+10.30+HDTV.x264&amp;tr=udp%3A%2F%2Ftracker.leechers-paradise.org%3A6969&amp;tr=udp%3A%2F%2Fzer0day.ch%3A1337&amp;tr=udp%3A%2F%2Fopen.demonii.com%3A1337&amp;tr=udp%3A%2F%2Ftracker.coppersurfer.tk%3A6969&amp;tr=udp%3A%2F%2Fexodus.desync.com%3A6969","seeders":1,"leechers":0,"uploader":"TheRival","files":2,"time":1446281105,"description":"Screens: \nhttp://extraimago.com/image/0YH\r\n\r\nVideo\r\nID                                       : 1\r\nFormat                                   : AVC\r\nFormat/Info                              : Advanced Video Codec\r\nFormat profile                           :   \r\nFormat settings, CABAC                   : Yes\r\nFormat settings, ReFrames                : 5 frames\r\nCodec ID                                 : avc1\r\nCodec ID/Info                            : Advanced Video Coding\r\nDuration                                 : 20mn 18s\r\nBit rate                                 : 789 Kbps\r\nMaximum bit rate                         : 3 520 Kbps\r\nWidth                                    : 720 pixels\r\nHeight                                   : 404 pixels\r\nDisplay aspect ratio                     : 16:9\r\nFrame rate mode                          : Constant\r\nFrame rate                               : 29.970 fps\r\nColor space                              : YUV\r\nChroma subsampling                       : 4:2:0\r\nBit depth                                : 8 bits\r\nScan type                                : Progressive\r\nBits/(Pixel*Frame)                       : 0.090\r\nStream size                              : 115 MiB (85%)\r\nWriting library                          : x264 core 148 r2638 7599210\r\nEncoding settings                        : cabac=1 / ref=5 / deblock=1:0:0 / analyse=0x3:0x113 / me=umh / subme=8 / psy=1 / psy_rd=1.00:0.00 / mixed_ref=1 / me_range=16 / chroma_me=1 / trellis=1 / 8x8dct=1 / cqm=0 / deadzone=21,11 / fast_pskip=1 / chroma_qp_offset=-2 / threads=12 / lookahead_threads=2 / sliced_threads=0 / nr=0 / decimate=1 / interlaced=0 / bluray_compat=0 / constrained_intra=0 / bframes=3 / b_pyramid=2 / b_adapt=2 / b_bias=0 / direct=3 / weightb=1 / open_gop=0 / weightp=2 / keyint=250 / keyint_min=25 / scenecut=40 / intra_refresh=0 / rc_lookahead=50 / rc=crf / mbtree=1 / crf=21.0 / qcomp=0.60 / qpmin=0 / qpmax=69 / qpstep=4 / ip_ratio=1.40 / aq=1:1.00\r\nEncoded date                             : UTC 2015-10-31 06:05:21\r\nTagged date                              : UTC 2015-10-31 06:12:27\r\nColor range                              : Limited\r\nMatrix coefficients                      : BT.709\r\n\r\nAudio\r\nID                                       : 2\r\nFormat                                   : AAC\r\nFormat/Info                              : Advanced Audio Codec\r\nFormat profile                           : LC\r\nCodec ID                                 : 40\r\nDuration                                 : 20mn 18s\r\nBit rate mode                            : Variable\r\nBit rate                                 : 129 Kbps\r\nMaximum bit rate                         : 171 Kbps\r\nChannel(s)                               : 2 channels\r\nChannel positions                        : Front: L R\r\nSampling rate                            : 48.0 KHz\r\nCompression mode                         : Lossy\r\nStream size                              : 18.7 MiB (14%)\r\nEncoded date                             : UTC 2015-10-31 06:12:26\r\nTagged date                              : UTC 2015-10-31 06:12:27\r\n\r\nText\r\nID                                       : 3\r\nFormat                                   : Timed Text\r\nCodec ID                                 : tx3g\r\nDuration                                 : 20mn 19s\r\nBit rate mode                            : Variable\r\nBit rate                                 : 254 bps\r\nStream size                              : 37.8 KiB (0%)\r\nEncoded date                             : UTC 2015-10-31 06:12:27\r\nTagged date                              : UTC 2015-10-31 06:12:27","torrent":{"xt":"urn:btih:c4a3b51731fdb8a435eda2d790308ca0fb170f30","amp;dn":"The+Soup+2015+10.30+HDTV.x264","amp;tr":["udp%3A%2F%2Ftracker.leechers-paradise.org%3A6969","udp%3A%2F%2Fzer0day.ch%3A1337","udp%3A%2F%2Fopen.demonii.com%3A1337","udp%3A%2F%2Ftracker.coppersurfer.tk%3A6969","udp%3A%2F%2Fexodus.desync.com%3A6969"],"infoHash":"c4a3b51731fdb8a435eda2d790308ca0fb170f30","infoHashBuffer":{"type":"Buffer","data":[196,163,181,23,49,253,184,164,53,237,162,215,144,48,140,160,251,23,15,48]},"announce":[],"urlList":[]}}